<svg xmlns="http://www.w3.org/2000/svg" xmlns:svg="http://www.w3.org/2000/svg" xmlns:xlink="http://www.w3.org/1999/xlink" id="svg3535" width="856.027" height="562.21" version="1.1"><title id="title5353">Kubernetes on AWS: Cluster Updates</title><defs id="defs3537"><marker id="marker6259" orient="auto" refX="0" refY="0" style="overflow:visible"><path id="path6261" d="m -2.5,-1 c 0,2.76 -2.24,5 -5,5 -2.76,0 -5,-2.24 -5,-5 0,-2.76 2.24,-5 5,-5 2.76,0 5,2.24 5,5 z" transform="matrix(0.2,0,0,0.2,1.48,0.2)" style="fill:#646464;fill-opacity:1;fill-rule:evenodd;stroke:#646464;stroke-width:1pt;stroke-opacity:1"/></marker><marker style="overflow:visible" id="marker6247" orient="auto" refX="0" refY="0"><path style="fill:#646464;fill-opacity:1;fill-rule:evenodd;stroke:#646464;stroke-width:1pt;stroke-opacity:1" id="path6249" d="m -2.5,-1 c 0,2.76 -2.24,5 -5,5 -2.76,0 -5,-2.24 -5,-5 0,-2.76 2.24,-5 5,-5 2.76,0 5,2.24 5,5 z" transform="matrix(0.2,0,0,0.2,1.48,0.2)"/></marker><marker id="DotS" orient="auto" refX="0" refY="0" style="overflow:visible"><path id="path6033" d="m -2.5,-1 c 0,2.76 -2.24,5 -5,5 -2.76,0 -5,-2.24 -5,-5 0,-2.76 2.24,-5 5,-5 2.76,0 5,2.24 5,5 z" transform="matrix(0.2,0,0,0.2,1.48,0.2)" style="fill:#646464;fill-opacity:1;fill-rule:evenodd;stroke:#646464;stroke-width:1pt;stroke-opacity:1"/></marker><marker id="Arrow2Sstart" orient="auto" refX="0" refY="0" style="overflow:visible"><path id="path5996" d="M 8.7185878,4.0337352 -2.2072895,0.01601326 8.7185884,-4.0017078 c -1.7454984,2.3720609 -1.7354408,5.6174519 -6e-7,8.035443 z" transform="matrix(0.3,0,0,0.3,-0.69,0)" style="fill:#646464;fill-opacity:1;fill-rule:evenodd;stroke:#646464;stroke-width:.625;stroke-linejoin:round;stroke-opacity:1"/></marker><marker id="Arrow1Sstart" orient="auto" refX="0" refY="0" style="overflow:visible"><path id="path5978" d="M 0,0 5,-5 -12.5,0 5,5 0,0 Z" transform="matrix(0.2,0,0,0.2,1.2,0)" style="fill:#646464;fill-opacity:1;fill-rule:evenodd;stroke:#646464;stroke-width:1pt;stroke-opacity:1"/></marker><marker id="marker6222" orient="auto" refX="0" refY="0" style="overflow:visible"><path id="path5969" d="M 0,0 5,-5 -12.5,0 5,5 0,0 Z" transform="matrix(-0.8,0,0,-0.8,-10,0)" style="fill:#646464;fill-opacity:1;fill-rule:evenodd;stroke:#646464;stroke-width:1pt;stroke-opacity:1"/></marker><linearGradient id="linearGradient5651"><stop style="stop-color:#4e9a06;stop-opacity:1" id="stop5653" offset="0"/><stop style="stop-color:#8ae234;stop-opacity:1" id="stop5655" offset="1"/></linearGradient><linearGradient id="linearGradient5150-4"><stop id="stop5645" offset="0" style="stop-color:#2387ff;stop-opacity:1"/><stop id="stop5647" offset="1" style="stop-color:#b4d6ff;stop-opacity:1"/></linearGradient><linearGradient id="linearGradient5637"><stop id="stop5639" offset="0" style="stop-color:#888a85;stop-opacity:1"/><stop id="stop5641" offset="1" style="stop-color:#eeeeec;stop-opacity:1"/></linearGradient><linearGradient id="linearGradient5150-4-3"><stop id="stop5633" offset="0" style="stop-color:#2387ff;stop-opacity:1"/><stop id="stop5635" offset="1" style="stop-color:#b4d6ff;stop-opacity:1"/></linearGradient><marker id="Arrow1Mend" orient="auto" refX="0" refY="0" style="overflow:visible"><path id="path5308" d="M 0,0 5,-5 -12.5,0 5,5 0,0 Z" transform="matrix(-0.4,0,0,-0.4,-4,0)" style="fill-rule:evenodd;stroke:#000;stroke-width:1pt"/></marker><linearGradient id="linearGradient5150"><stop style="stop-color:#2387ff;stop-opacity:1" id="stop5152" offset="0"/><stop style="stop-color:#b4d6ff;stop-opacity:1" id="stop5154" offset="1"/></linearGradient><linearGradient id="linearGradient5132"><stop style="stop-color:#ff8700;stop-opacity:1" id="stop5134" offset="0"/><stop style="stop-color:#ffc584;stop-opacity:1" id="stop5136" offset="1"/></linearGradient><marker id="Arrow1Lend" orient="auto" refX="0" refY="0" style="overflow:visible"><path id="path4458" d="M 0,0 5,-5 -12.5,0 5,5 0,0 Z" transform="matrix(-0.8,0,0,-0.8,-10,0)" style="fill-rule:evenodd;stroke:#000;stroke-width:1pt"/></marker><marker id="Arrow1Lend-5" orient="auto" refX="0" refY="0" style="overflow:visible"><path id="path4458-7" d="M 0,0 5,-5 -12.5,0 5,5 0,0 Z" transform="matrix(-0.8,0,0,-0.8,-10,0)" style="fill-rule:evenodd;stroke:#000;stroke-width:1pt"/></marker><marker id="Arrow1Lend-9" orient="auto" refX="0" refY="0" style="overflow:visible"><path id="path4458-0" d="M 0,0 5,-5 -12.5,0 5,5 0,0 Z" transform="matrix(-0.8,0,0,-0.8,-10,0)" style="fill-rule:evenodd;stroke:#000;stroke-width:1pt"/></marker><marker id="Arrow1Lend-0" orient="auto" refX="0" refY="0" style="overflow:visible"><path id="path4458-5" d="M 0,0 5,-5 -12.5,0 5,5 0,0 Z" transform="matrix(-0.8,0,0,-0.8,-10,0)" style="fill-rule:evenodd;stroke:#000;stroke-width:1pt"/></marker><marker id="Arrow1Lend-8" orient="auto" refX="0" refY="0" style="overflow:visible"><path id="path4458-4" d="M 0,0 5,-5 -12.5,0 5,5 0,0 Z" transform="matrix(-0.8,0,0,-0.8,-10,0)" style="fill-rule:evenodd;stroke:#000;stroke-width:1pt"/></marker><linearGradient id="linearGradient5138" x1="678.524" x2="678.524" y1="232.429" y2="162.429" gradientUnits="userSpaceOnUse" xlink:href="#linearGradient5132"/><linearGradient id="linearGradient5148" x1="268.524" x2="268.524" y1="252.429" y2="167.429" gradientTransform="translate(-0.80940247,0)" gradientUnits="userSpaceOnUse" xlink:href="#linearGradient5132"/><marker id="Arrow1Lend-1" orient="auto" refX="0" refY="0" style="overflow:visible"><path id="path4458-2" d="M 0,0 5,-5 -12.5,0 5,5 0,0 Z" transform="matrix(-0.8,0,0,-0.8,-10,0)" style="fill-rule:evenodd;stroke:#000;stroke-width:1pt"/></marker><linearGradient id="linearGradient5156-7" x1="363.524" x2="363.524" y1="397.429" y2="327.429" gradientUnits="userSpaceOnUse" xlink:href="#linearGradient5150-7"/><linearGradient id="linearGradient5150-7"><stop style="stop-color:#2387ff;stop-opacity:1" id="stop5152-0" offset="0"/><stop style="stop-color:#b4d6ff;stop-opacity:1" id="stop5154-3" offset="1"/></linearGradient><linearGradient id="linearGradient5156-8" x1="363.524" x2="363.524" y1="397.429" y2="327.429" gradientUnits="userSpaceOnUse" xlink:href="#linearGradient5150-4"/><linearGradient id="linearGradient5649"><stop style="stop-color:#2387ff;stop-opacity:1" id="stop5152-2" offset="0"/><stop style="stop-color:#b4d6ff;stop-opacity:1" id="stop5154-7" offset="1"/></linearGradient><linearGradient id="linearGradient3388-5" x1="363.524" x2="363.524" y1="397.429" y2="327.429" gradientTransform="translate(-178.37975,39.878531)" gradientUnits="userSpaceOnUse" xlink:href="#linearGradient5150-4-4"/><linearGradient id="linearGradient5150-4-4"><stop style="stop-color:#2387ff;stop-opacity:1" id="stop5152-2-6" offset="0"/><stop style="stop-color:#b4d6ff;stop-opacity:1" id="stop5154-7-9" offset="1"/></linearGradient><linearGradient id="linearGradient3442" x1="363.524" x2="363.524" y1="397.429" y2="327.429" gradientUnits="userSpaceOnUse" xlink:href="#linearGradient5150"/><marker id="Arrow1Lend-52" orient="auto" refX="0" refY="0" style="overflow:visible"><path id="path4458-55" d="M 0,0 5,-5 -12.5,0 5,5 0,0 Z" transform="matrix(-0.8,0,0,-0.8,-10,0)" style="fill-rule:evenodd;stroke:#000;stroke-width:1pt"/></marker><marker id="Arrow1Lend-16" orient="auto" refX="0" refY="0" style="overflow:visible"><path id="path4458-25" d="M 0,0 5,-5 -12.5,0 5,5 0,0 Z" transform="matrix(-0.8,0,0,-0.8,-10,0)" style="fill-rule:evenodd;stroke:#000;stroke-width:1pt"/></marker><marker id="Arrow1Lend-17" orient="auto" refX="0" refY="0" style="overflow:visible"><path id="path4458-05" d="M 0,0 5,-5 -12.5,0 5,5 0,0 Z" transform="matrix(-0.8,0,0,-0.8,-10,0)" style="fill-rule:evenodd;stroke:#000;stroke-width:1pt"/></marker><clipPath id="SVGID_2_"><path id="use3869" d="m 73.117,30.035 0,2.402 c 0,4.506 -3.578,8.156 -7.967,8.156 -4.389,0 -7.967,-3.65 -7.967,-8.156 l 0,-2.402 c 0,4.506 3.578,8.156 7.967,8.156 4.389,0 7.967,-3.65 7.967,-8.156 z"/></clipPath><clipPath id="SVGID_4_"><path id="use3895" d="m 57.068,40.258 0,2.402 c 0,3.986 -3.164,7.229 -7.068,7.229 -3.891,0 -7.057,-3.242 -7.057,-7.229 l 0,-2.402 c 0,3.988 3.166,7.229 7.057,7.229 3.904,-0.001 7.068,-3.241 7.068,-7.229 z"/></clipPath><clipPath id="SVGID_6_"><path id="use3951" d="m 65.959,61.375 0,2.4 c -0.482,-5.357 -4.822,-9.01 -10.908,-9.01 l 0,-2.4 c 6.086,0 10.426,3.653 10.908,9.01 z"/></clipPath><clipPath id="SVGID_8_"><path id="use3969" d="m 44.951,52.365 0,2.4 c -6.084,0 -10.436,3.652 -10.91,9.01 l 0,-2.4 c 0.475,-5.357 4.826,-9.01 10.91,-9.01 z"/></clipPath><clipPath id="SVGID_10_"><path id="use4019" d="m 42.832,30.035 0,2.402 c 0,4.506 -3.58,8.156 -7.98,8.156 -4.391,0 -7.955,-3.65 -7.955,-8.156 l 0,-2.402 c 0,4.506 3.564,8.156 7.955,8.156 4.4,0 7.98,-3.65 7.98,-8.156 z"/></clipPath><marker id="Arrow1MendE" orient="auto" refX="0" refY="0" style="overflow:visible"><path id="path9060" d="M 0,0 5,-5 -12.5,0 5,5 0,0 Z" transform="matrix(-0.4,0,0,-0.4,-4,0)" style="fill:#646464;fill-rule:evenodd;stroke:#646464;stroke-width:1pt"/></marker><marker id="Arrow1Mendz" orient="auto" refX="0" refY="0" style="overflow:visible"><path id="path9543" d="M 0,0 5,-5 -12.5,0 5,5 0,0 Z" transform="matrix(-0.4,0,0,-0.4,-4,0)" style="fill:#646464;fill-rule:evenodd;stroke:#646464;stroke-width:1pt"/></marker><marker id="Arrow1MendH" orient="auto" refX="0" refY="0" style="overflow:visible"><path id="path10028" d="M 0,0 5,-5 -12.5,0 5,5 0,0 Z" transform="matrix(-0.4,0,0,-0.4,-4,0)" style="fill:#646464;fill-rule:evenodd;stroke:#646464;stroke-width:1pt"/></marker><marker id="Arrow1Mendk" orient="auto" refX="0" refY="0" style="overflow:visible"><path id="path10517" d="M 0,0 5,-5 -12.5,0 5,5 0,0 Z" transform="matrix(-0.4,0,0,-0.4,-4,0)" style="fill:#646464;fill-rule:evenodd;stroke:#646464;stroke-width:1pt"/></marker><marker id="Arrow1Mendr" orient="auto" refX="0" refY="0" style="overflow:visible"><path id="path11010" d="M 0,0 5,-5 -12.5,0 5,5 0,0 Z" transform="matrix(-0.4,0,0,-0.4,-4,0)" style="fill:#646464;fill-rule:evenodd;stroke:#646464;stroke-width:1pt"/></marker><marker id="Arrow1MendK" orient="auto" refX="0" refY="0" style="overflow:visible"><path id="path11507" d="M 0,0 5,-5 -12.5,0 5,5 0,0 Z" transform="matrix(-0.4,0,0,-0.4,-4,0)" style="fill:#646464;fill-rule:evenodd;stroke:#646464;stroke-width:1pt"/></marker><marker id="Arrow1Mend9" orient="auto" refX="0" refY="0" style="overflow:visible"><path id="path12008" d="M 0,0 5,-5 -12.5,0 5,5 0,0 Z" transform="matrix(-0.4,0,0,-0.4,-4,0)" style="fill:#646464;fill-rule:evenodd;stroke:#646464;stroke-width:1pt"/></marker><marker id="Arrow1Mendb" orient="auto" refX="0" refY="0" style="overflow:visible"><path id="path12513" d="M 0,0 5,-5 -12.5,0 5,5 0,0 Z" transform="matrix(-0.4,0,0,-0.4,-4,0)" style="fill:#646464;fill-rule:evenodd;stroke:#646464;stroke-width:1pt"/></marker><linearGradient id="linearGradient12965" x1="363.524" x2="363.524" y1="396.917" y2="346.917" gradientTransform="translate(267.87824,-449.48764)" gradientUnits="userSpaceOnUse" xlink:href="#linearGradient5637"/><marker id="Arrow1Mend9-1" orient="auto" refX="0" refY="0" style="overflow:visible"><path id="path12008-2" d="M 0,0 5,-5 -12.5,0 5,5 0,0 Z" transform="matrix(-0.4,0,0,-0.4,-4,0)" style="fill:#646464;fill-rule:evenodd;stroke:#646464;stroke-width:1pt"/></marker><marker id="Arrow1Mend9-1-3" orient="auto" refX="0" refY="0" style="overflow:visible"><path id="path12008-2-1" d="M 0,0 5,-5 -12.5,0 5,5 0,0 Z" transform="matrix(-0.4,0,0,-0.4,-4,0)" style="fill:#646464;fill-rule:evenodd;stroke:#646464;stroke-width:1pt"/></marker><marker id="Arrow1MendE-4" orient="auto" refX="0" refY="0" style="overflow:visible"><path id="path9060-7" d="M 0,0 5,-5 -12.5,0 5,5 0,0 Z" transform="matrix(-0.4,0,0,-0.4,-4,0)" style="fill:#646464;fill-rule:evenodd;stroke:#646464;stroke-width:1pt"/></marker><marker id="Arrow1Mend9-1-3-6" orient="auto" refX="0" refY="0" style="overflow:visible"><path id="path12008-2-1-3" d="M 0,0 5,-5 -12.5,0 5,5 0,0 Z" transform="matrix(-0.4,0,0,-0.4,-4,0)" style="fill:#646464;fill-rule:evenodd;stroke:#646464;stroke-width:1pt"/></marker><marker id="Arrow1Mend9-1-3-9" orient="auto" refX="0" refY="0" style="overflow:visible"><path id="path12008-2-1-37" d="M 0,0 5,-5 -12.5,0 5,5 0,0 Z" transform="matrix(-0.4,0,0,-0.4,-4,0)" style="fill:#646464;fill-rule:evenodd;stroke:#646464;stroke-width:1pt"/></marker><linearGradient id="linearGradient7399" x1="268.524" x2="268.524" y1="252.429" y2="167.429" gradientTransform="translate(40.24174,-166.78754)" gradientUnits="userSpaceOnUse" xlink:href="#linearGradient5132"/><marker id="Arrow1MendE-4-9" orient="auto" refX="0" refY="0" style="overflow:visible"><path id="path9060-7-1" d="M 0,0 5,-5 -12.5,0 5,5 0,0 Z" transform="matrix(-0.4,0,0,-0.4,-4,0)" style="fill:#646464;fill-rule:evenodd;stroke:#646464;stroke-width:1pt"/></marker><marker id="Arrow1MendE-4-9-4" orient="auto" refX="0" refY="0" style="overflow:visible"><path id="path9060-7-1-8" d="M 0,0 5,-5 -12.5,0 5,5 0,0 Z" transform="matrix(-0.4,0,0,-0.4,-4,0)" style="fill:#646464;fill-rule:evenodd;stroke:#646464;stroke-width:1pt"/></marker><marker id="Arrow1Mend9-1-3-6-2" orient="auto" refX="0" refY="0" style="overflow:visible"><path id="path12008-2-1-3-9" d="M 0,0 5,-5 -12.5,0 5,5 0,0 Z" transform="matrix(-0.4,0,0,-0.4,-4,0)" style="fill:#646464;fill-rule:evenodd;stroke:#646464;stroke-width:1pt"/></marker><marker id="Arrow1Mend9-1-9" orient="auto" refX="0" refY="0" style="overflow:visible"><path id="path12008-2-0" d="M 0,0 5,-5 -12.5,0 5,5 0,0 Z" transform="matrix(-0.4,0,0,-0.4,-4,0)" style="fill:#646464;fill-rule:evenodd;stroke:#646464;stroke-width:1pt"/></marker><linearGradient id="linearGradient5186" x1="268.524" x2="268.524" y1="252.429" y2="167.429" gradientTransform="translate(40.24174,-166.78754)" gradientUnits="userSpaceOnUse" xlink:href="#linearGradient5132"/><linearGradient id="linearGradient5198" x1="268.524" x2="268.524" y1="252.429" y2="167.429" gradientTransform="translate(40.24174,-166.78754)" gradientUnits="userSpaceOnUse" xlink:href="#linearGradient5132"/><linearGradient id="linearGradient5210" x1="268.524" x2="268.524" y1="252.429" y2="167.429" gradientTransform="translate(40.24174,-166.78754)" gradientUnits="userSpaceOnUse" xlink:href="#linearGradient5132"/><linearGradient id="linearGradient5222" x1="268.524" x2="268.524" y1="252.429" y2="167.429" gradientTransform="translate(40.24174,-166.78754)" gradientUnits="userSpaceOnUse" xlink:href="#linearGradient5132"/><linearGradient id="linearGradient9370" x1="363.524" x2="363.524" y1="396.917" y2="346.917" gradientTransform="translate(525.68755,-379.48763)" gradientUnits="userSpaceOnUse" xlink:href="#linearGradient5150-4"/><linearGradient id="linearGradient9394" x1="363.524" x2="363.524" y1="396.917" y2="346.917" gradientTransform="translate(517.87821,-299.48763)" gradientUnits="userSpaceOnUse" xlink:href="#linearGradient5651"/></defs><metadata id="metadata3540"/><g id="layer1" transform="translate(-150.34668,167.99159)"><path style="fill:none;stroke:#646464;stroke-width:3;stroke-linecap:butt;stroke-linejoin:miter;stroke-miterlimit:4;stroke-dasharray:none;stroke-opacity:1;marker-end:url(#Arrow1MendE-4)" id="path9422" d="m 809.36057,117.42906 0,73.92857"/><path id="path9424" d="m 768.52373,238.49613 -64.28571,0" style="fill:none;stroke:#646464;stroke-width:3;stroke-linecap:butt;stroke-linejoin:miter;stroke-miterlimit:4;stroke-dasharray:none;stroke-opacity:1;marker-end:url(#Arrow1MendE-4)"/><path style="fill:none;stroke:#646464;stroke-width:3;stroke-linecap:butt;stroke-linejoin:miter;stroke-miterlimit:4;stroke-dasharray:none;stroke-opacity:1;marker-end:url(#Arrow1MendE-4)" id="path9426" d="m 588.52373,238.49613 -61.42857,0"/><path style="fill:none;stroke:#646464;stroke-width:3;stroke-linecap:butt;stroke-linejoin:miter;stroke-miterlimit:4;stroke-dasharray:none;stroke-opacity:1;marker-end:url(#Arrow1MendE-4)" id="path4449-9-8" d="m 518.52373,-116.42452 70,0"/><path id="path9416" d="m 633.20252,-102.57094 0,59.999995" style="fill:none;stroke:#646464;stroke-width:3;stroke-linecap:butt;stroke-linejoin:miter;stroke-miterlimit:4;stroke-dasharray:none;stroke-opacity:1;marker-end:url(#Arrow1MendE-4)"/><path style="fill:none;stroke:#646464;stroke-width:3;stroke-linecap:butt;stroke-linejoin:miter;stroke-miterlimit:4;stroke-dasharray:none;stroke-opacity:1;marker-end:url(#Arrow1MendE-4)" id="path9418" d="m 633.20252,7.4290552 0,59.9999998"/><path id="path9420" d="m 688.52373,98.496132 50,0" style="fill:none;stroke:#646464;stroke-width:3;stroke-linecap:butt;stroke-linejoin:miter;stroke-miterlimit:4;stroke-dasharray:none;stroke-opacity:1;marker-end:url(#Arrow1MendE-4)"/><text style="font-style:normal;font-weight:400;font-size:40px;line-height:125%;font-family:Sans;letter-spacing:0;word-spacing:0;fill:#000;fill-opacity:1;stroke:none" id="text4370-9" x="158.776" y="-74.188" xml:space="preserve"><tspan id="tspan4372-17" x="158.776" y="-74.188" style="font-size:16px">Developer</tspan></text><g id="g9347" transform="translate(-5.321224,-40.37496)"><rect id="rect3543-9-9" width="80" height="53.043" x="598.524" y="-102.571" style="fill:url(#linearGradient12965);fill-opacity:1;stroke:#000;stroke-width:1;stroke-miterlimit:4;stroke-dasharray:none;stroke-dashoffset:0;stroke-opacity:1"/><text id="text4370-3-8-2-7-4-7" x="637.844" y="-70.947" xml:space="preserve" style="font-style:normal;font-weight:400;font-size:40px;line-height:125%;font-family:Sans;text-align:center;letter-spacing:0;word-spacing:0;text-anchor:middle;fill:#000;fill-opacity:1;stroke:none"><tspan style="font-size:14px;text-align:center;text-anchor:middle" id="tspan5033" x="637.844" y="-70.947">PR</tspan></text></g><path style="fill:none;stroke:#646464;stroke-width:3;stroke-linecap:butt;stroke-linejoin:miter;stroke-miterlimit:4;stroke-dasharray:none;stroke-opacity:1;marker-end:url(#Arrow1MendE)" id="path4449-9" d="m 228.52373,-116.42452 160,0"/><text style="font-style:normal;font-weight:400;font-size:40px;line-height:125%;font-family:Sans;text-align:center;letter-spacing:0;word-spacing:0;text-anchor:middle;fill:#000;fill-opacity:1;stroke:none" id="text4370-3-8-3-4-6" x="302.968" y="-144.412" xml:space="preserve"><tspan style="font-style:italic;font-size:16px;-inkscape-font-specification:'Sans Italic';text-align:center;text-anchor:middle" id="tspan5291" x="305.515" y="-144.412">create </tspan><tspan style="font-style:italic;font-size:16px;-inkscape-font-specification:'Sans Italic';text-align:center;text-anchor:middle" id="tspan10747" x="302.968" y="-124.412">feature branch</tspan></text><g id="g7407" transform="translate(155.17323,-159.02688)"><rect id="rect3543-9-8-5" width="128.326" height="82.134" x="237.708" y="1.535" style="fill:url(#linearGradient7399);fill-opacity:1;stroke:#000;stroke-width:1;stroke-miterlimit:4;stroke-dasharray:none;stroke-dashoffset:0;stroke-opacity:1"/><text id="text4370-3-8-2-7-9" x="301.322" y="37.307" xml:space="preserve" style="font-style:normal;font-weight:400;font-size:40px;line-height:125%;font-family:Sans;text-align:center;letter-spacing:0;word-spacing:0;text-anchor:middle;fill:#000;fill-opacity:1;stroke:none"><tspan id="tspan7352-0" x="301.322" y="37.307" style="font-weight:700;font-size:15px;-inkscape-font-specification:'Sans Bold';text-align:center;text-anchor:middle;fill:#fff;fill-opacity:1">&quot;myfeat-xy&quot;</tspan><tspan style="font-weight:700;font-size:15px;-inkscape-font-specification:'Sans Bold';text-align:center;text-anchor:middle;fill:#fff;fill-opacity:1" id="tspan5174" x="301.322" y="56.057">Branch</tspan></text></g><text style="font-style:normal;font-weight:400;font-size:40px;line-height:125%;font-family:Sans;text-align:center;letter-spacing:0;word-spacing:0;text-anchor:middle;fill:#000;fill-opacity:1;stroke:none" id="text4370-3-8-3-4-6-0" x="481.746" y="94.281" xml:space="preserve"><tspan style="font-style:italic;font-size:16px;-inkscape-font-specification:'Sans Italic';text-align:center;text-anchor:middle" id="tspan8441" x="481.746" y="94.281">run</tspan><tspan style="font-style:italic;font-size:16px;-inkscape-font-specification:'Sans Italic';text-align:center;text-anchor:middle" id="tspan10751" x="481.746" y="114.281">e2e tests</tspan></text><g id="g5176" transform="translate(507.48933,55.893769)"><rect style="fill:url(#linearGradient5186);fill-opacity:1;stroke:#000;stroke-width:1;stroke-miterlimit:4;stroke-dasharray:none;stroke-dashoffset:0;stroke-opacity:1" id="rect5178" width="128.326" height="82.134" x="237.708" y="1.535"/><text style="font-style:normal;font-weight:400;font-size:40px;line-height:125%;font-family:Sans;text-align:center;letter-spacing:0;word-spacing:0;text-anchor:middle;fill:#000;fill-opacity:1;stroke:none" id="text5180" x="301.322" y="37.307" xml:space="preserve"><tspan style="font-weight:700;font-size:15px;-inkscape-font-specification:'Sans Bold';text-align:center;text-anchor:middle;fill:#fff;fill-opacity:1" id="tspan5182" x="301.322" y="37.307">&quot;dev&quot;</tspan><tspan id="tspan5184" x="301.322" y="56.057" style="font-weight:700;font-size:15px;-inkscape-font-specification:'Sans Bold';text-align:center;text-anchor:middle;fill:#fff;fill-opacity:1">Branch</tspan></text></g><g id="g5188" transform="translate(507.48933,195.89377)"><rect id="rect5190" width="128.326" height="82.134" x="237.708" y="1.535" style="fill:url(#linearGradient5198);fill-opacity:1;stroke:#000;stroke-width:1;stroke-miterlimit:4;stroke-dasharray:none;stroke-dashoffset:0;stroke-opacity:1"/><text id="text5192" x="301.322" y="37.307" xml:space="preserve" style="font-style:normal;font-weight:400;font-size:40px;line-height:125%;font-family:Sans;text-align:center;letter-spacing:0;word-spacing:0;text-anchor:middle;fill:#000;fill-opacity:1;stroke:none"><tspan id="tspan5194" x="301.322" y="37.307" style="font-weight:700;font-size:15px;-inkscape-font-specification:'Sans Bold';text-align:center;text-anchor:middle;fill:#fff;fill-opacity:1">&quot;alpha&quot;</tspan><tspan style="font-weight:700;font-size:15px;-inkscape-font-specification:'Sans Bold';text-align:center;text-anchor:middle;fill:#fff;fill-opacity:1" id="tspan5196" x="301.322" y="56.057">Branch</tspan></text></g><g id="g5200" transform="translate(331.33128,195.89377)"><rect style="fill:url(#linearGradient5210);fill-opacity:1;stroke:#000;stroke-width:1;stroke-miterlimit:4;stroke-dasharray:none;stroke-dashoffset:0;stroke-opacity:1" id="rect5202" width="128.326" height="82.134" x="237.708" y="1.535"/><text style="font-style:normal;font-weight:400;font-size:40px;line-height:125%;font-family:Sans;text-align:center;letter-spacing:0;word-spacing:0;text-anchor:middle;fill:#000;fill-opacity:1;stroke:none" id="text5204" x="301.322" y="37.307" xml:space="preserve"><tspan style="font-weight:700;font-size:15px;-inkscape-font-specification:'Sans Bold';text-align:center;text-anchor:middle;fill:#fff;fill-opacity:1" id="tspan5206" x="301.322" y="37.307">&quot;beta&quot;</tspan><tspan id="tspan5208" x="301.322" y="56.057" style="font-weight:700;font-size:15px;-inkscape-font-specification:'Sans Bold';text-align:center;text-anchor:middle;fill:#fff;fill-opacity:1">Branch</tspan></text></g><g id="g5212" transform="translate(155.17323,195.89377)"><rect id="rect5214" width="128.326" height="82.134" x="237.708" y="1.535" style="fill:url(#linearGradient5222);fill-opacity:1;stroke:#000;stroke-width:1;stroke-miterlimit:4;stroke-dasharray:none;stroke-dashoffset:0;stroke-opacity:1"/><text id="text5216" x="301.322" y="37.307" xml:space="preserve" style="font-style:normal;font-weight:400;font-size:40px;line-height:125%;font-family:Sans;text-align:center;letter-spacing:0;word-spacing:0;text-anchor:middle;fill:#000;fill-opacity:1;stroke:none"><tspan id="tspan5218" x="301.322" y="37.307" style="font-weight:700;font-size:15px;-inkscape-font-specification:'Sans Bold';text-align:center;text-anchor:middle;fill:#fff;fill-opacity:1">&quot;stable&quot;</tspan><tspan style="font-weight:700;font-size:15px;-inkscape-font-specification:'Sans Bold';text-align:center;text-anchor:middle;fill:#fff;fill-opacity:1" id="tspan5220" x="301.322" y="56.057">Branch</tspan></text></g><g id="g9410" transform="translate(-280.3212,-2.9146408)"><rect style="fill:url(#linearGradient9370);fill-opacity:1;stroke:#000;stroke-width:1;stroke-miterlimit:4;stroke-dasharray:none;stroke-dashoffset:0;stroke-opacity:1" id="rect9364" width="130" height="53.043" x="848.524" y="-32.571"/><text style="font-style:normal;font-weight:400;font-size:40px;line-height:125%;font-family:Sans;text-align:center;letter-spacing:0;word-spacing:0;text-anchor:middle;fill:#000;fill-opacity:1;stroke:none" id="text9366" x="913.059" y="-11.153" xml:space="preserve"><tspan id="tspan9368" x="913.059" y="-11.153" style="font-size:14px;text-align:center;text-anchor:middle">PR</tspan><tspan style="font-size:14px;text-align:center;text-anchor:middle" id="tspan9372" x="913.059" y="6.347">ready-to-test</tspan></text></g><g id="g9404" transform="translate(-280.32125,24.545683)"><rect id="rect9386" width="130" height="53.043" x="848.524" y="47.429" style="fill:url(#linearGradient9394);fill-opacity:1;stroke:#000;stroke-width:1;stroke-miterlimit:4;stroke-dasharray:none;stroke-dashoffset:0;stroke-opacity:1"/><text id="text9388" x="913.261" y="68.847" xml:space="preserve" style="font-style:normal;font-weight:400;font-size:40px;line-height:125%;font-family:Sans;text-align:center;letter-spacing:0;word-spacing:0;text-anchor:middle;fill:#000;fill-opacity:1;stroke:none"><tspan style="font-size:14px;text-align:center;text-anchor:middle" id="tspan9390" x="913.261" y="68.847">PR</tspan><tspan id="tspan9392" x="913.261" y="86.347" style="font-size:14px;text-align:center;text-anchor:middle">ready-to-merge</tspan></text></g><g id="g78" transform="matrix(1.8999283,0,0,1.8999283,437.29272,-19.039418)" style="fill:#bdbdbd;fill-opacity:1;stroke:#000;stroke-width:.78950346;stroke-linecap:round;stroke-linejoin:round;stroke-miterlimit:4;stroke-dasharray:none;stroke-opacity:1"><path id="path80" d="M 12.3,1.5 11.7,4.6 9,5.7 6.4,3.9 3.9,6.4 5.7,9 l -1.1,2.7 -3.1,0.6 0,3.5 3.1,0.5 1.1,2.7 -1.8,2.6 2.5,2.5 2.6,-1.8 2.7,1.1 0.6,3.1 3.5,0 0.5,-3.1 2.7,-1.1 2.6,1.8 2.5,-2.5 -1.8,-2.6 1.1,-2.7 3.1,-0.5 0,-3.5 L 23.4,11.7 22.3,9 24.1,6.4 21.6,3.9 19,5.7 16.3,4.6 15.8,1.5 l -3.5,0 z m 1.7,8 c 2.5,0 4.5,2 4.5,4.5 0,2.5 -2,4.5 -4.5,4.5 -2.5,0 -4.5,-2 -4.5,-4.5 0,-2.5 2,-4.5 4.5,-4.5 z" style="fill:#bdbdbd;fill-opacity:1;stroke:#000;stroke-width:.78950346;stroke-miterlimit:4;stroke-dasharray:none;stroke-opacity:1"/><path id="path82" d="m 25,10.5 -0.8,4.4 -3.9,1.6 -3.8,-2.5 -3.5,3.5 2.5,3.8 -1.6,3.9 -4.4,0.8 0,5 4.4,0.8 1.6,3.9 -2.5,3.8 3.5,3.5 3.8,-2.5 3.9,1.6 0.8,4.4 5,0 0.8,-4.4 3.9,-1.6 3.8,2.5 3.5,-3.5 -2.5,-3.8 1.6,-3.9 4.4,-0.8 0,-5 -4.4,-0.8 -1.6,-3.9 2.5,-3.8 -3.5,-3.5 -3.8,2.5 -3.9,-1.6 -0.8,-4.4 -5,0 z m 2.5,12 c 3.3,0 6,2.7 6,6 0,3.3 -2.7,6 -6,6 -3.3,0 -6,-2.7 -6,-6 0,-3.3 2.7,-6 6,-6 z" style="fill:#bdbdbd;fill-opacity:1;stroke:#000;stroke-width:.78950346;stroke-miterlimit:4;stroke-dasharray:none;stroke-opacity:1"/></g><g id="g4" transform="translate(176.19434,-141.07094)" style="fill:#bdbdbd;fill-opacity:1;stroke:#000;stroke-linecap:round;stroke-linejoin:round;stroke-opacity:1"><path id="path6" d="m 20.5,22.5 -3,15 14,0 -3,-15 z" style="fill:#bdbdbd;fill-opacity:1;stroke:#000;stroke-opacity:1"/><path id="path8" d="M 18.5,27.5 C 10,30 5.5,39 5.5,44.5 c 0,1.5 6.5,2 8,2 l 11,0 11,0 c 1.5,0 8,-0.5 8,-2 0,-5.5 -4.5,-14.5 -13,-17 l -5,1 -1,8 -1,-8 z" style="fill:#bdbdbd;fill-opacity:1;stroke:#000;stroke-opacity:1"/><path id="path10" d="m 24.5,3.5 c -5.5,0 -10,5 -10,11 0,6 4.5,11 10,11 5.5,0 10,-5 10,-11 0,-6 -4.5,-11 -10,-11 z" style="fill:#bdbdbd;fill-opacity:1;stroke:#000;stroke-opacity:1"/><path id="path12" d="m 24.5,1.5 c -4,0 -6,1.5 -7,4 -3,1 -4,5 -3,9 2,-2 3,-4 4,-7 11,8 10,-3 16,7 1,-8 -4,-13 -10,-13 z" style="fill:#bdbdbd;fill-opacity:1;stroke:#000;stroke-opacity:1"/><path id="path14" d="m 18.5,25.5 c 1,1 2,2 5,3 -2,1 -2,3 -2,4 -2,-1 -4,-4 -4,-6 z" style="fill:#bdbdbd;fill-opacity:1;stroke:#000;stroke-opacity:1"/><path id="path16" d="m 30.5,25.5 c -1,1 -2,2 -5,3 2,1 2,3 2,4 2,-1 4,-4 4,-6 z" style="fill:#bdbdbd;fill-opacity:1;stroke:#000;stroke-opacity:1"/><path id="path18" d="m 14.5,38.5 -1,8 m 22,0 -1,-8" style="fill:#bdbdbd;fill-opacity:1;stroke:#000;stroke-opacity:1"/></g><path id="path5960" d="m 533.05944,35.429055 100,0" style="fill:none;stroke:#646464;stroke-width:3;stroke-linecap:butt;stroke-linejoin:miter;stroke-miterlimit:4;stroke-dasharray:3,3;stroke-dashoffset:0;stroke-opacity:1;marker-end:url(#DotS)"/><text id="text6231" x="746.911" y="-63.302" xml:space="preserve" style="font-style:normal;font-weight:400;font-size:40px;line-height:125%;font-family:Sans;text-align:center;letter-spacing:0;word-spacing:0;text-anchor:middle;fill:#000;fill-opacity:1;stroke:none"><tspan id="tspan6235" x="746.911" y="-63.302" style="font-style:italic;font-size:16px;-inkscape-font-specification:'Sans Italic';text-align:center;text-anchor:middle">add &quot;ready-to-test&quot; label</tspan></text><g style="fill:#bdbdbd;fill-opacity:1;stroke:#000;stroke-width:1.01366591;stroke-linecap:round;stroke-linejoin:round;stroke-miterlimit:4;stroke-dasharray:none;stroke-opacity:1" id="g6239" transform="matrix(0.98651835,0,0,0.98651835,893.92167,134.50316)"><path style="fill:#bdbdbd;fill-opacity:1;stroke:#000;stroke-width:1.01366591;stroke-miterlimit:4;stroke-dasharray:none;stroke-opacity:1" id="path6241" d="M 12.3,1.5 11.7,4.6 9,5.7 6.4,3.9 3.9,6.4 5.7,9 l -1.1,2.7 -3.1,0.6 0,3.5 3.1,0.5 1.1,2.7 -1.8,2.6 2.5,2.5 2.6,-1.8 2.7,1.1 0.6,3.1 3.5,0 0.5,-3.1 2.7,-1.1 2.6,1.8 2.5,-2.5 -1.8,-2.6 1.1,-2.7 3.1,-0.5 0,-3.5 L 23.4,11.7 22.3,9 24.1,6.4 21.6,3.9 19,5.7 16.3,4.6 15.8,1.5 l -3.5,0 z m 1.7,8 c 2.5,0 4.5,2 4.5,4.5 0,2.5 -2,4.5 -4.5,4.5 -2.5,0 -4.5,-2 -4.5,-4.5 0,-2.5 2,-4.5 4.5,-4.5 z"/><path style="fill:#bdbdbd;fill-opacity:1;stroke:#000;stroke-width:1.01366591;stroke-miterlimit:4;stroke-dasharray:none;stroke-opacity:1" id="path6243" d="m 25,10.5 -0.8,4.4 -3.9,1.6 -3.8,-2.5 -3.5,3.5 2.5,3.8 -1.6,3.9 -4.4,0.8 0,5 4.4,0.8 1.6,3.9 -2.5,3.8 3.5,3.5 3.8,-2.5 3.9,1.6 0.8,4.4 5,0 0.8,-4.4 3.9,-1.6 3.8,2.5 3.5,-3.5 -2.5,-3.8 1.6,-3.9 4.4,-0.8 0,-5 -4.4,-0.8 -1.6,-3.9 2.5,-3.8 -3.5,-3.5 -3.8,2.5 -3.9,-1.6 -0.8,-4.4 -5,0 z m 2.5,12 c 3.3,0 6,2.7 6,6 0,3.3 -2.7,6 -6,6 -3.3,0 -6,-2.7 -6,-6 0,-3.3 2.7,-6 6,-6 z"/></g><path style="fill:none;stroke:#646464;stroke-width:3;stroke-linecap:butt;stroke-linejoin:miter;stroke-miterlimit:4;stroke-dasharray:3,3;stroke-dashoffset:0;stroke-opacity:1;marker-end:url(#marker6247)" id="path6245" d="m 892.16867,158.66767 -82.83761,0"/><g id="g6251" transform="matrix(0.98651835,0,0,0.98651835,705.23507,295.6225)" style="fill:#bdbdbd;fill-opacity:1;stroke:#000;stroke-width:1.01366591;stroke-linecap:round;stroke-linejoin:round;stroke-miterlimit:4;stroke-dasharray:none;stroke-opacity:1"><path id="path6253" d="M 12.3,1.5 11.7,4.6 9,5.7 6.4,3.9 3.9,6.4 5.7,9 l -1.1,2.7 -3.1,0.6 0,3.5 3.1,0.5 1.1,2.7 -1.8,2.6 2.5,2.5 2.6,-1.8 2.7,1.1 0.6,3.1 3.5,0 0.5,-3.1 2.7,-1.1 2.6,1.8 2.5,-2.5 -1.8,-2.6 1.1,-2.7 3.1,-0.5 0,-3.5 L 23.4,11.7 22.3,9 24.1,6.4 21.6,3.9 19,5.7 16.3,4.6 15.8,1.5 l -3.5,0 z m 1.7,8 c 2.5,0 4.5,2 4.5,4.5 0,2.5 -2,4.5 -4.5,4.5 -2.5,0 -4.5,-2 -4.5,-4.5 0,-2.5 2,-4.5 4.5,-4.5 z" style="fill:#bdbdbd;fill-opacity:1;stroke:#000;stroke-width:1.01366591;stroke-miterlimit:4;stroke-dasharray:none;stroke-opacity:1"/><path id="path6255" d="m 25,10.5 -0.8,4.4 -3.9,1.6 -3.8,-2.5 -3.5,3.5 2.5,3.8 -1.6,3.9 -4.4,0.8 0,5 4.4,0.8 1.6,3.9 -2.5,3.8 3.5,3.5 3.8,-2.5 3.9,1.6 0.8,4.4 5,0 0.8,-4.4 3.9,-1.6 3.8,2.5 3.5,-3.5 -2.5,-3.8 1.6,-3.9 4.4,-0.8 0,-5 -4.4,-0.8 -1.6,-3.9 2.5,-3.8 -3.5,-3.5 -3.8,2.5 -3.9,-1.6 -0.8,-4.4 -5,0 z m 2.5,12 c 3.3,0 6,2.7 6,6 0,3.3 -2.7,6 -6,6 -3.3,0 -6,-2.7 -6,-6 0,-3.3 2.7,-6 6,-6 z" style="fill:#bdbdbd;fill-opacity:1;stroke:#000;stroke-width:1.01366591;stroke-miterlimit:4;stroke-dasharray:none;stroke-opacity:1"/></g><path id="path6257" d="m 732.6703,300.48681 0,-62.0476" style="fill:none;stroke:#646464;stroke-width:3;stroke-linecap:butt;stroke-linejoin:miter;stroke-miterlimit:4;stroke-dasharray:3,3;stroke-dashoffset:0;stroke-opacity:1;marker-end:url(#marker6259)"/><g style="fill:#bdbdbd;fill-opacity:1;stroke:#000;stroke-width:1.01366591;stroke-linecap:round;stroke-linejoin:round;stroke-miterlimit:4;stroke-dasharray:none;stroke-opacity:1" id="g6263" transform="matrix(0.98651835,0,0,0.98651835,527.23507,295.6225)"><path style="fill:#bdbdbd;fill-opacity:1;stroke:#000;stroke-width:1.01366591;stroke-miterlimit:4;stroke-dasharray:none;stroke-opacity:1" id="path6265" d="M 12.3,1.5 11.7,4.6 9,5.7 6.4,3.9 3.9,6.4 5.7,9 l -1.1,2.7 -3.1,0.6 0,3.5 3.1,0.5 1.1,2.7 -1.8,2.6 2.5,2.5 2.6,-1.8 2.7,1.1 0.6,3.1 3.5,0 0.5,-3.1 2.7,-1.1 2.6,1.8 2.5,-2.5 -1.8,-2.6 1.1,-2.7 3.1,-0.5 0,-3.5 L 23.4,11.7 22.3,9 24.1,6.4 21.6,3.9 19,5.7 16.3,4.6 15.8,1.5 l -3.5,0 z m 1.7,8 c 2.5,0 4.5,2 4.5,4.5 0,2.5 -2,4.5 -4.5,4.5 -2.5,0 -4.5,-2 -4.5,-4.5 0,-2.5 2,-4.5 4.5,-4.5 z"/><path style="fill:#bdbdbd;fill-opacity:1;stroke:#000;stroke-width:1.01366591;stroke-miterlimit:4;stroke-dasharray:none;stroke-opacity:1" id="path6267" d="m 25,10.5 -0.8,4.4 -3.9,1.6 -3.8,-2.5 -3.5,3.5 2.5,3.8 -1.6,3.9 -4.4,0.8 0,5 4.4,0.8 1.6,3.9 -2.5,3.8 3.5,3.5 3.8,-2.5 3.9,1.6 0.8,4.4 5,0 0.8,-4.4 3.9,-1.6 3.8,2.5 3.5,-3.5 -2.5,-3.8 1.6,-3.9 4.4,-0.8 0,-5 -4.4,-0.8 -1.6,-3.9 2.5,-3.8 -3.5,-3.5 -3.8,2.5 -3.9,-1.6 -0.8,-4.4 -5,0 z m 2.5,12 c 3.3,0 6,2.7 6,6 0,3.3 -2.7,6 -6,6 -3.3,0 -6,-2.7 -6,-6 0,-3.3 2.7,-6 6,-6 z"/></g><path style="fill:none;stroke:#646464;stroke-width:3;stroke-linecap:butt;stroke-linejoin:miter;stroke-miterlimit:4;stroke-dasharray:3,3;stroke-dashoffset:0;stroke-opacity:1;marker-end:url(#marker6259)" id="path6269" d="m 554.6703,300.48681 0,-62.0476"/><text style="font-style:normal;font-weight:400;font-size:40px;line-height:125%;font-family:Sans;text-align:center;letter-spacing:0;word-spacing:0;text-anchor:middle;fill:#000;fill-opacity:1;stroke:none" id="text6271" x="891.053" y="203.883" xml:space="preserve"><tspan style="font-style:italic;font-size:16px;-inkscape-font-specification:'Sans Italic';text-align:start;text-anchor:start" id="tspan6273" x="891.053" y="203.883">monitoring,</tspan><tspan style="font-style:italic;font-size:16px;-inkscape-font-specification:'Sans Italic';text-align:start;text-anchor:start" id="tspan6275" x="891.053" y="223.883">automatic PR</tspan></text><text id="text6277" x="728.852" y="363.992" xml:space="preserve" style="font-style:normal;font-weight:400;font-size:40px;line-height:125%;font-family:Sans;text-align:center;letter-spacing:0;word-spacing:0;text-anchor:middle;fill:#000;fill-opacity:1;stroke:none"><tspan id="tspan6279" x="728.852" y="363.992" style="font-style:italic;font-size:16px;-inkscape-font-specification:'Sans Italic';text-align:center;text-anchor:middle">monitoring,</tspan><tspan id="tspan6281" x="728.852" y="383.992" style="font-style:italic;font-size:16px;-inkscape-font-specification:'Sans Italic';text-align:center;text-anchor:middle">automatic PR</tspan></text><text style="font-style:normal;font-weight:400;font-size:40px;line-height:125%;font-family:Sans;text-align:center;letter-spacing:0;word-spacing:0;text-anchor:middle;fill:#000;fill-opacity:1;stroke:none" id="text6283" x="550.852" y="363.992" xml:space="preserve"><tspan style="font-style:italic;font-size:16px;-inkscape-font-specification:'Sans Italic';text-align:center;text-anchor:middle" id="tspan6285" x="550.852" y="363.992">monitoring,</tspan><tspan style="font-style:italic;font-size:16px;-inkscape-font-specification:'Sans Italic';text-align:center;text-anchor:middle" id="tspan6287" x="550.852" y="383.992">automatic PR</tspan></text></g></svg>