<svg xmlns="http://www.w3.org/2000/svg" xmlns:svg="http://www.w3.org/2000/svg" xmlns:xlink="http://www.w3.org/1999/xlink" id="svg3535" width="776.883" height="504.135" version="1.1"><title id="title5353">Kubernetes on AWS</title><defs id="defs3537"><linearGradient id="linearGradient5132"><stop style="stop-color:gray;stop-opacity:1" id="stop15017" offset="0"/><stop style="stop-color:#c1c1c1;stop-opacity:1" id="stop15019" offset="1"/></linearGradient><marker style="overflow:visible" id="Arrow1Mend" orient="auto" refX="0" refY="0"><path style="fill-rule:evenodd;stroke:#000;stroke-width:1.00000003pt" id="path5308" d="M 0,0 5,-5 -12.5,0 5,5 Z" transform="matrix(-0.4,0,0,-0.4,-4,0)"/></marker><linearGradient id="linearGradient5150"><stop id="stop5152" offset="0" style="stop-color:#2387ff;stop-opacity:1"/><stop id="stop5154" offset="1" style="stop-color:#b4d6ff;stop-opacity:1"/></linearGradient><linearGradient id="linearGradient5132-3"><stop id="stop5134" offset="0" style="stop-color:#ff8700;stop-opacity:1"/><stop id="stop5136" offset="1" style="stop-color:#ffc584;stop-opacity:1"/></linearGradient><marker style="overflow:visible" id="Arrow1Lend" orient="auto" refX="0" refY="0"><path style="fill-rule:evenodd;stroke:#000;stroke-width:1.00000003pt" id="path4458" d="M 0,0 5,-5 -12.5,0 5,5 Z" transform="matrix(-0.8,0,0,-0.8,-10,0)"/></marker><marker style="overflow:visible" id="Arrow1Lend-5" orient="auto" refX="0" refY="0"><path style="fill-rule:evenodd;stroke:#000;stroke-width:1.00000003pt" id="path4458-7" d="M 0,0 5,-5 -12.5,0 5,5 Z" transform="matrix(-0.8,0,0,-0.8,-10,0)"/></marker><marker style="overflow:visible" id="Arrow1Lend-9" orient="auto" refX="0" refY="0"><path style="fill-rule:evenodd;stroke:#000;stroke-width:1.00000003pt" id="path4458-0" d="M 0,0 5,-5 -12.5,0 5,5 Z" transform="matrix(-0.8,0,0,-0.8,-10,0)"/></marker><marker style="overflow:visible" id="Arrow1Lend-0" orient="auto" refX="0" refY="0"><path style="fill-rule:evenodd;stroke:#000;stroke-width:1.00000003pt" id="path4458-5" d="M 0,0 5,-5 -12.5,0 5,5 Z" transform="matrix(-0.8,0,0,-0.8,-10,0)"/></marker><marker style="overflow:visible" id="Arrow1Lend-8" orient="auto" refX="0" refY="0"><path style="fill-rule:evenodd;stroke:#000;stroke-width:1.00000003pt" id="path4458-4" d="M 0,0 5,-5 -12.5,0 5,5 Z" transform="matrix(-0.8,0,0,-0.8,-10,0)"/></marker><linearGradient id="linearGradient5138" x1="678.524" x2="678.524" y1="232.429" y2="162.429" gradientUnits="userSpaceOnUse" xlink:href="#linearGradient5132-3"/><linearGradient id="linearGradient5148" x1="268.524" x2="268.524" y1="252.429" y2="167.429" gradientTransform="translate(-0.80940247)" gradientUnits="userSpaceOnUse" xlink:href="#linearGradient5132-3"/><marker style="overflow:visible" id="Arrow1Lend-1" orient="auto" refX="0" refY="0"><path style="fill-rule:evenodd;stroke:#000;stroke-width:1.00000003pt" id="path4458-2" d="M 0,0 5,-5 -12.5,0 5,5 Z" transform="matrix(-0.8,0,0,-0.8,-10,0)"/></marker><linearGradient id="linearGradient5156-7" x1="363.524" x2="363.524" y1="397.429" y2="327.429" gradientUnits="userSpaceOnUse" xlink:href="#linearGradient5150-7"/><linearGradient id="linearGradient5150-7"><stop id="stop5152-0" offset="0" style="stop-color:#2387ff;stop-opacity:1"/><stop id="stop5154-3" offset="1" style="stop-color:#b4d6ff;stop-opacity:1"/></linearGradient><linearGradient id="linearGradient5156-8" x1="363.524" x2="363.524" y1="397.429" y2="327.429" gradientUnits="userSpaceOnUse" xlink:href="#linearGradient5150-4"/><linearGradient id="linearGradient5150-4"><stop id="stop5152-2" offset="0" style="stop-color:#2387ff;stop-opacity:1"/><stop id="stop5154-7" offset="1" style="stop-color:#b4d6ff;stop-opacity:1"/></linearGradient><linearGradient id="linearGradient3388-5" x1="363.524" x2="363.524" y1="397.429" y2="327.429" gradientTransform="translate(-178.37975,39.878531)" gradientUnits="userSpaceOnUse" xlink:href="#linearGradient5150-4-4"/><linearGradient id="linearGradient5150-4-4"><stop id="stop5152-2-6" offset="0" style="stop-color:#2387ff;stop-opacity:1"/><stop id="stop5154-7-9" offset="1" style="stop-color:#b4d6ff;stop-opacity:1"/></linearGradient><linearGradient id="linearGradient3442" x1="363.524" x2="363.524" y1="397.429" y2="327.429" gradientUnits="userSpaceOnUse" xlink:href="#linearGradient5150"/><marker style="overflow:visible" id="Arrow1Lend-52" orient="auto" refX="0" refY="0"><path style="fill-rule:evenodd;stroke:#000;stroke-width:1.00000003pt" id="path4458-55" d="M 0,0 5,-5 -12.5,0 5,5 Z" transform="matrix(-0.8,0,0,-0.8,-10,0)"/></marker><marker style="overflow:visible" id="Arrow1Lend-16" orient="auto" refX="0" refY="0"><path style="fill-rule:evenodd;stroke:#000;stroke-width:1.00000003pt" id="path4458-25" d="M 0,0 5,-5 -12.5,0 5,5 Z" transform="matrix(-0.8,0,0,-0.8,-10,0)"/></marker><marker style="overflow:visible" id="Arrow1Lend-17" orient="auto" refX="0" refY="0"><path style="fill-rule:evenodd;stroke:#000;stroke-width:1.00000003pt" id="path4458-05" d="M 0,0 5,-5 -12.5,0 5,5 Z" transform="matrix(-0.8,0,0,-0.8,-10,0)"/></marker><clipPath id="SVGID_2_"><use id="use3869" width="744.094" height="1052.362" x="0" y="0" overflow="visible" xlink:href="#SVGID_35_" style="overflow:visible"/></clipPath><clipPath id="SVGID_4_"><use id="use3895" width="744.094" height="1052.362" x="0" y="0" overflow="visible" xlink:href="#SVGID_37_" style="overflow:visible"/></clipPath><clipPath id="SVGID_6_"><use id="use3951" width="744.094" height="1052.362" x="0" y="0" overflow="visible" xlink:href="#SVGID_39_" style="overflow:visible"/></clipPath><clipPath id="SVGID_8_"><use id="use3969" width="744.094" height="1052.362" x="0" y="0" overflow="visible" xlink:href="#SVGID_41_" style="overflow:visible"/></clipPath><clipPath id="SVGID_10_"><use id="use4019" width="744.094" height="1052.362" x="0" y="0" overflow="visible" xlink:href="#SVGID_43_" style="overflow:visible"/></clipPath><marker style="overflow:visible" id="Arrow1MendE" orient="auto" refX="0" refY="0"><path style="fill:#646464;fill-rule:evenodd;stroke:#646464;stroke-width:1.00000003pt" id="path9060" d="M 0,0 5,-5 -12.5,0 5,5 Z" transform="matrix(-0.4,0,0,-0.4,-4,0)"/></marker><marker style="overflow:visible" id="Arrow1Mendz" orient="auto" refX="0" refY="0"><path style="fill:#646464;fill-rule:evenodd;stroke:#646464;stroke-width:1.00000003pt" id="path9543" d="M 0,0 5,-5 -12.5,0 5,5 Z" transform="matrix(-0.4,0,0,-0.4,-4,0)"/></marker><marker style="overflow:visible" id="Arrow1MendH" orient="auto" refX="0" refY="0"><path style="fill:#646464;fill-rule:evenodd;stroke:#646464;stroke-width:1.00000003pt" id="path10028" d="M 0,0 5,-5 -12.5,0 5,5 Z" transform="matrix(-0.4,0,0,-0.4,-4,0)"/></marker><marker style="overflow:visible" id="Arrow1Mendk" orient="auto" refX="0" refY="0"><path style="fill:#646464;fill-rule:evenodd;stroke:#646464;stroke-width:1.00000003pt" id="path10517" d="M 0,0 5,-5 -12.5,0 5,5 Z" transform="matrix(-0.4,0,0,-0.4,-4,0)"/></marker><marker style="overflow:visible" id="Arrow1Mendr" orient="auto" refX="0" refY="0"><path style="fill:#646464;fill-rule:evenodd;stroke:#646464;stroke-width:1.00000003pt" id="path11010" d="M 0,0 5,-5 -12.5,0 5,5 Z" transform="matrix(-0.4,0,0,-0.4,-4,0)"/></marker><marker style="overflow:visible" id="Arrow1MendK" orient="auto" refX="0" refY="0"><path style="fill:#646464;fill-rule:evenodd;stroke:#646464;stroke-width:1.00000003pt" id="path11507" d="M 0,0 5,-5 -12.5,0 5,5 Z" transform="matrix(-0.4,0,0,-0.4,-4,0)"/></marker><marker style="overflow:visible" id="Arrow1Mend9" orient="auto" refX="0" refY="0"><path style="fill:#646464;fill-rule:evenodd;stroke:#646464;stroke-width:1.00000003pt" id="path12008" d="M 0,0 5,-5 -12.5,0 5,5 Z" transform="matrix(-0.4,0,0,-0.4,-4,0)"/></marker><marker style="overflow:visible" id="Arrow1Mendb" orient="auto" refX="0" refY="0"><path style="fill:#646464;fill-rule:evenodd;stroke:#646464;stroke-width:1.00000003pt" id="path12513" d="M 0,0 5,-5 -12.5,0 5,5 Z" transform="matrix(-0.4,0,0,-0.4,-4,0)"/></marker><linearGradient id="linearGradient12961" x1="268.524" x2="268.524" y1="252.429" y2="197.429" gradientTransform="translate(204.18155,-105.87671)" gradientUnits="userSpaceOnUse" xlink:href="#linearGradient5132-3"/><marker style="overflow:visible" id="Arrow1Mend9-1" orient="auto" refX="0" refY="0"><path style="fill:#646464;fill-rule:evenodd;stroke:#646464;stroke-width:1.00000003pt" id="path12008-2" d="M 0,0 5,-5 -12.5,0 5,5 Z" transform="matrix(-0.4,0,0,-0.4,-4,0)"/></marker><marker style="overflow:visible" id="Arrow1Mend9-1-3" orient="auto" refX="0" refY="0"><path style="fill:#646464;fill-rule:evenodd;stroke:#646464;stroke-width:1.00000003pt" id="path12008-2-1" d="M 0,0 5,-5 -12.5,0 5,5 Z" transform="matrix(-0.4,0,0,-0.4,-4,0)"/></marker><marker style="overflow:visible" id="Arrow1MendE-4" orient="auto" refX="0" refY="0"><path style="fill:#646464;fill-rule:evenodd;stroke:#646464;stroke-width:1.00000003pt" id="path9060-7" d="M 0,0 5,-5 -12.5,0 5,5 Z" transform="matrix(-0.4,0,0,-0.4,-4,0)"/></marker><marker style="overflow:visible" id="Arrow1Mend9-1-3-6" orient="auto" refX="0" refY="0"><path style="fill:#646464;fill-rule:evenodd;stroke:#646464;stroke-width:1.00000003pt" id="path12008-2-1-3" d="M 0,0 5,-5 -12.5,0 5,5 Z" transform="matrix(-0.4,0,0,-0.4,-4,0)"/></marker><marker style="overflow:visible" id="Arrow1Mend9-1-3-9" orient="auto" refX="0" refY="0"><path style="fill:#646464;fill-rule:evenodd;stroke:#646464;stroke-width:1.00000003pt" id="path12008-2-1-37" d="M 0,0 5,-5 -12.5,0 5,5 Z" transform="matrix(-0.4,0,0,-0.4,-4,0)"/></marker><linearGradient id="linearGradient12959-3-3" x1="678.524" x2="678.524" y1="232.429" y2="162.429" gradientTransform="translate(132.05608,-114.87822)" gradientUnits="userSpaceOnUse" xlink:href="#linearGradient5132-3"/><marker style="overflow:visible" id="Arrow1MendE-4-2" orient="auto" refX="0" refY="0"><path style="fill:#646464;fill-rule:evenodd;stroke:#646464;stroke-width:1.00000003pt" id="path9060-7-9" d="M 0,0 5,-5 -12.5,0 5,5 Z" transform="matrix(-0.4,0,0,-0.4,-4,0)"/></marker><linearGradient id="linearGradient3388-3" x1="363.524" x2="363.524" y1="378.5" y2="278.143" gradientTransform="translate(184.22593,-61.317804)" gradientUnits="userSpaceOnUse" xlink:href="#linearGradient5150"/><linearGradient id="linearGradient12959-3-9-2" x1="680.667" x2="678.524" y1="203.143" y2="162.429" gradientTransform="translate(263.85848,-186.78195)" gradientUnits="userSpaceOnUse" xlink:href="#linearGradient5132"/><marker style="overflow:visible" id="Arrow1Mend9-1-3-6-0" orient="auto" refX="0" refY="0"><path style="fill:#646464;fill-rule:evenodd;stroke:#646464;stroke-width:1.00000003pt" id="path12008-2-1-3-6" d="M 0,0 5,-5 -12.5,0 5,5 Z" transform="matrix(-0.4,0,0,-0.4,-4,0)"/></marker><marker style="overflow:visible" id="Arrow1Mend9-1-3-6-0-2" orient="auto" refX="0" refY="0"><path style="fill:#646464;fill-rule:evenodd;stroke:#646464;stroke-width:1.00000003pt" id="path12008-2-1-3-6-0" d="M 0,0 5,-5 -12.5,0 5,5 Z" transform="matrix(-0.4,0,0,-0.4,-4,0)"/></marker><marker style="overflow:visible" id="Arrow1Mend9-1-3-6-0-2-1" orient="auto" refX="0" refY="0"><path style="fill:#646464;fill-rule:evenodd;stroke:#646464;stroke-width:1.00000003pt" id="path12008-2-1-3-6-0-5" d="M 0,0 5,-5 -12.5,0 5,5 Z" transform="matrix(-0.4,0,0,-0.4,-4,0)"/></marker><marker style="overflow:visible" id="Arrow1Mend9-1-3-6-0-2-1-4" orient="auto" refX="0" refY="0"><path style="fill:#646464;fill-rule:evenodd;stroke:#646464;stroke-width:1.00000003pt" id="path12008-2-1-3-6-0-5-7" d="M 0,0 5,-5 -12.5,0 5,5 Z" transform="matrix(-0.4,0,0,-0.4,-4,0)"/></marker><marker style="overflow:visible" id="Arrow1Mend9-1-3-6-0-2-1-4-5" orient="auto" refX="0" refY="0"><path style="fill:#646464;fill-rule:evenodd;stroke:#646464;stroke-width:1.00000003pt" id="path12008-2-1-3-6-0-5-7-6" d="M 0,0 5,-5 -12.5,0 5,5 Z" transform="matrix(-0.4,0,0,-0.4,-4,0)"/></marker><marker style="overflow:visible" id="Arrow1Mend9-1-37" orient="auto" refX="0" refY="0"><path style="fill:#646464;fill-rule:evenodd;stroke:#646464;stroke-width:1.00000003pt" id="path12008-2-4" d="M 0,0 5,-5 -12.5,0 5,5 Z" transform="matrix(-0.4,0,0,-0.4,-4,0)"/></marker><linearGradient id="linearGradient12959-3-9-2-2-2" x1="678.524" x2="678.524" y1="177.429" y2="162.429" gradientTransform="translate(-72.658159,108.87536)" gradientUnits="userSpaceOnUse" xlink:href="#linearGradient5132-3"/><linearGradient id="linearGradient12959-3-9-2-2-2-0" x1="647.809" x2="647.809" y1="190.286" y2="163.143" gradientTransform="translate(-62.586737,141.24671)" gradientUnits="userSpaceOnUse" xlink:href="#linearGradient5132-3"/><marker style="overflow:visible" id="Arrow1Mend9-1-3-6-0-2-1-4-50" orient="auto" refX="0" refY="0"><path style="fill:#646464;fill-rule:evenodd;stroke:#646464;stroke-width:1.00000003pt" id="path12008-2-1-3-6-0-5-7-4" d="M 0,0 5,-5 -12.5,0 5,5 Z" transform="matrix(-0.4,0,0,-0.4,-4,0)"/></marker><marker style="overflow:visible" id="Arrow1Mend9-1-3-6-0-2-1-4-50-7" orient="auto" refX="0" refY="0"><path style="fill:#646464;fill-rule:evenodd;stroke:#646464;stroke-width:1.00000003pt" id="path12008-2-1-3-6-0-5-7-4-1" d="M 0,0 5,-5 -12.5,0 5,5 Z" transform="matrix(-0.4,0,0,-0.4,-4,0)"/></marker><marker style="overflow:visible" id="Arrow1Mend9-1-3-6-0-2-1-4-50-7-2" orient="auto" refX="0" refY="0"><path style="fill:#646464;fill-rule:evenodd;stroke:#646464;stroke-width:1.00000003pt" id="path12008-2-1-3-6-0-5-7-4-1-7" d="M 0,0 5,-5 -12.5,0 5,5 Z" transform="matrix(-0.4,0,0,-0.4,-4,0)"/></marker><marker style="overflow:visible" id="Arrow1Mend9-1-3-6-0-2-1-4-50-7-2-2" orient="auto" refX="0" refY="0"><path style="fill:#646464;fill-rule:evenodd;stroke:#646464;stroke-width:1.00000003pt" id="path12008-2-1-3-6-0-5-7-4-1-7-6" d="M 0,0 5,-5 -12.5,0 5,5 Z" transform="matrix(-0.4,0,0,-0.4,-4,0)"/></marker><symbol id="Comment"><title id="title10055">Comment/Annotation</title><desc id="desc10057">Additional descriptive clarification (connect by dotted line).</desc><path id="path10059" d="M 135,115 H 15 V 35 h 120" style="stroke-width:2"/></symbol><linearGradient id="linearGradient13048" x1="268.524" x2="268.524" y1="252.429" y2="197.429" gradientTransform="translate(301.44267,-263.06964)" gradientUnits="userSpaceOnUse" xlink:href="#linearGradient5132-3"/><linearGradient id="linearGradient15009" x1="268.524" x2="268.524" y1="252.429" y2="197.429" gradientTransform="translate(532.15696,-325.2125)" gradientUnits="userSpaceOnUse" xlink:href="#linearGradient5132"/></defs><metadata id="metadata3540"/><g id="layer1" transform="translate(-216.86779,137.38968)"><ellipse id="path5293" cx="547.284" cy="318.102" rx="162.5" ry="23.929" style="fill:#b6b6b6;fill-opacity:1;stroke:none;stroke-width:8;stroke-linecap:round;stroke-linejoin:miter;stroke-miterlimit:4;stroke-dasharray:none;stroke-dashoffset:0;stroke-opacity:1"/><rect id="rect3543-9-8" width="124.041" height="52.134" x="405.934" y="92.446" style="fill:url(#linearGradient12961);fill-opacity:1;stroke:#000;stroke-width:1;stroke-miterlimit:4;stroke-dasharray:none;stroke-dashoffset:0;stroke-opacity:1"/><text id="text4370-9" x="295.205" y="-42.046" xml:space="preserve" style="font-style:normal;font-weight:400;line-height:0%;font-family:sans-serif;letter-spacing:0;word-spacing:0;fill:#000;fill-opacity:1;stroke:none"><tspan style="font-size:16px;line-height:1.25;font-family:sans-serif" id="tspan4372-17" x="295.205" y="-42.046">User</tspan></text><text id="text4370-3-8-2-7" x="467.652" y="115.143" xml:space="preserve" style="font-style:normal;font-weight:400;line-height:0%;font-family:sans-serif;text-align:center;letter-spacing:0;word-spacing:0;text-anchor:middle;fill:#000;fill-opacity:1;stroke:none"><tspan id="tspan5244" x="467.652" y="115.143" style="font-weight:700;font-size:13.75px;line-height:1.25;font-family:sans-serif;-inkscape-font-specification:'Sans Bold';text-align:center;text-anchor:middle;fill:#fff;fill-opacity:1">Kubernetes</tspan><tspan id="tspan4321" x="467.652" y="132.33" style="font-weight:700;font-size:13.75px;line-height:1.25;font-family:sans-serif;-inkscape-font-specification:'Sans Bold';text-align:center;text-anchor:middle;fill:#fff;fill-opacity:1">API Server</tspan></text><g id="Layer_1" transform="matrix(0.96357848,0,0,0.96357848,207.03542,-93.810119)"><g id="g3853"><g id="g3855"><g id="g3857"><path id="path3859" d="m 65.15,21.893 c 4.389,0 7.967,3.65 7.967,8.143 0,4.506 -3.578,8.156 -7.967,8.156 -4.389,0 -7.967,-3.65 -7.967,-8.156 10e-4,-4.493 3.579,-8.143 7.967,-8.143 z" style="fill:#c5c6c7"/></g><g id="g3861"><defs id="defs3863"><path id="SVGID_35_" d="m 73.117,30.035 v 2.402 c 0,4.506 -3.578,8.156 -7.967,8.156 -4.389,0 -7.967,-3.65 -7.967,-8.156 v -2.402 c 0,4.506 3.578,8.156 7.967,8.156 4.389,0 7.967,-3.65 7.967,-8.156 z"/></defs><use id="use3866" width="744.094" height="1052.362" x="0" y="0" overflow="visible" xlink:href="#SVGID_35_" style="overflow:visible;fill:#737678"/><clipPath id="clipPath4069"><use id="use4071" width="744.094" height="1052.362" x="0" y="0" overflow="visible" xlink:href="#SVGID_35_" style="overflow:visible"/></clipPath><g id="g3871" clip-path="url(#SVGID_2_)"><path id="path3873" d="m 73.117,30.035 v 2.402 c 0,0.408 -0.027,0.811 -0.086,1.199 v -2.4 c 0.059,-0.392 0.086,-0.793 0.086,-1.201" style="fill:#737678"/><path id="path3875" d="m 73.031,31.236 v 2.4 c -0.066,0.461 -0.17,0.91 -0.311,1.342 v -2.4 c 0.141,-0.432 0.245,-0.883 0.311,-1.342" style="fill:#737678"/><path id="path3877" d="m 72.721,32.578 v 2.4 c -0.162,0.512 -0.375,1 -0.627,1.463 v -2.402 c 0.252,-0.463 0.465,-0.949 0.627,-1.461" style="fill:#737678"/><path id="path3879" d="m 72.094,34.039 v 2.402 c -1.371,2.477 -3.971,4.152 -6.943,4.152 -4.389,0 -7.967,-3.65 -7.967,-8.156 v -2.402 c 0,4.506 3.578,8.156 7.967,8.156 2.972,0 5.572,-1.673 6.943,-4.152" style="fill:#737678"/></g></g></g><g id="g3881"><g id="g3883"><path id="path3885" d="m 50,33.031 c 3.904,0 7.068,3.244 7.068,7.227 0,3.988 -3.164,7.229 -7.068,7.229 -3.891,0 -7.057,-3.24 -7.057,-7.229 0,-3.983 3.166,-7.227 7.057,-7.227 z" style="fill:#c5c6c7"/></g><g id="g3887"><defs id="defs3889"><path id="SVGID_37_" d="m 57.068,40.258 v 2.402 c 0,3.986 -3.164,7.229 -7.068,7.229 -3.891,0 -7.057,-3.242 -7.057,-7.229 v -2.402 c 0,3.988 3.166,7.229 7.057,7.229 3.904,-0.001 7.068,-3.241 7.068,-7.229 z"/></defs><use id="use3892" width="744.094" height="1052.362" x="0" y="0" overflow="visible" xlink:href="#SVGID_37_" style="overflow:visible;fill:#737678"/><clipPath id="clipPath4085"><use id="use4087" width="744.094" height="1052.362" x="0" y="0" overflow="visible" xlink:href="#SVGID_37_" style="overflow:visible"/></clipPath><g id="g3897" clip-path="url(#SVGID_4_)"><path id="path3899" d="m 57.068,40.258 v 2.402 c 0,0.361 -0.025,0.715 -0.074,1.061 v -2.402 c 0.049,-0.346 0.074,-0.7 0.074,-1.061" style="fill:#737678"/><path id="path3901" d="m 56.994,41.318 v 2.402 c -0.061,0.408 -0.15,0.807 -0.275,1.193 v -2.402 c 0.125,-0.384 0.215,-0.782 0.275,-1.193" style="fill:#737678"/><path id="path3903" d="m 56.719,42.512 v 2.402 c -0.145,0.449 -0.332,0.883 -0.557,1.293 v -2.4 c 0.225,-0.409 0.412,-0.844 0.557,-1.295" style="fill:#737678"/><path id="path3905" d="m 56.162,43.807 v 2.4 c -1.215,2.195 -3.52,3.682 -6.162,3.682 -3.891,0 -7.057,-3.242 -7.057,-7.229 v -2.402 c 0,3.988 3.166,7.229 7.057,7.229 2.643,-0.001 4.947,-1.487 6.162,-3.68" style="fill:#737678"/></g></g><g id="g3907"><polygon id="polygon3909" points="55.664 52.139 55.051 54.766 50.875 54.766 50.875 52.365" style="fill:#737678"/></g><g id="g3911"><polygon id="polygon3913" points="49.129 52.365 49.129 54.766 44.951 54.766 44.164 52.139" style="fill:#737678"/></g><g id="g3915"><rect id="rect3917" width="1.309" height="2.402" x="73.332" y="54.195" style="fill:#737678"/></g><g id="g3919"><rect id="rect3921" width="1.299" height="2.402" x="25.598" y="54.209" style="fill:#737678"/></g><g id="g3923"><rect id="rect3925" width="7.145" height="2.4" x="26.896" y="61.375" style="fill:#737678"/></g><g id="g3927"><rect id="rect3929" width="5.014" height="2.4" x="20.584" y="61.375" style="fill:#737678"/></g><g id="g3931"><path id="path3933" d="m 70.188,42.486 c 5.438,0 9.229,3.418 9.229,8.295 v 10.594 h -4.775 v -7.18 h -1.309 v 7.18 H 65.96 c -0.482,-5.357 -4.822,-9.01 -10.908,-9.01 h -4.176 v -0.906 c 4.662,-0.42 8.377,-4.207 8.789,-8.949 0.15,-0.01 0.287,-0.023 0.438,-0.023 h 10.085 z" style="fill:#c5c6c7"/></g><g id="g3935"><rect id="rect3937" width="4.775" height="2.4" x="74.641" y="61.375" style="fill:#737678"/></g><g id="g3939"><rect id="rect3941" width="7.373" height="2.4" x="65.959" y="61.375" style="fill:#737678"/></g><g id="g3943"><defs id="defs3945"><path id="SVGID_39_" d="m 65.959,61.375 v 2.4 c -0.482,-5.357 -4.822,-9.01 -10.908,-9.01 v -2.4 c 6.086,0 10.426,3.653 10.908,9.01 z"/></defs><use id="use3948" width="744.094" height="1052.362" x="0" y="0" overflow="visible" xlink:href="#SVGID_39_" style="overflow:visible;fill:#737678"/><clipPath id="clipPath4116"><use id="use4118" width="744.094" height="1052.362" x="0" y="0" overflow="visible" xlink:href="#SVGID_39_" style="overflow:visible"/></clipPath><g id="g3953" clip-path="url(#SVGID_6_)"><path id="path3955" d="m 65.959,61.375 v 2.4 c -0.482,-5.357 -4.822,-9.01 -10.908,-9.01 v -2.4 c 6.086,0 10.426,3.653 10.908,9.01" style="fill:#737678"/></g></g><g id="g3957"><path id="path3959" d="m 39.898,42.5 c 0.152,0 0.301,0.01 0.449,0.01 0.414,4.742 4.127,8.529 8.781,8.949 v 0.906 H 44.95 c -6.084,0 -10.436,3.652 -10.91,9.01 h -7.145 v -7.166 h -1.299 v 7.166 H 20.582 V 50.793 c 0,-4.889 3.793,-8.293 9.23,-8.293 z" style="fill:#c5c6c7"/></g><g id="g3961"><defs id="defs3963"><path id="SVGID_41_" d="m 44.951,52.365 v 2.4 c -6.084,0 -10.436,3.652 -10.91,9.01 v -2.4 c 0.475,-5.357 4.826,-9.01 10.91,-9.01 z"/></defs><use id="use3966" width="744.094" height="1052.362" x="0" y="0" overflow="visible" xlink:href="#SVGID_41_" style="overflow:visible;fill:#737678"/><clipPath id="clipPath4128"><use id="use4130" width="744.094" height="1052.362" x="0" y="0" overflow="visible" xlink:href="#SVGID_41_" style="overflow:visible"/></clipPath><g id="g3971" clip-path="url(#SVGID_8_)"><path id="path3973" d="m 44.951,52.365 v 2.4 c -4.471,0 -8.004,1.969 -9.752,5.139 V 57.5 c 1.748,-3.168 5.281,-5.135 9.752,-5.135" style="fill:#737678"/><path id="path3975" d="m 35.199,57.5 v 2.404 c -0.289,0.52 -0.529,1.076 -0.717,1.66 v -2.4 C 34.67,58.58 34.91,58.023 35.199,57.5" style="fill:#737678"/><path id="path3977" d="m 34.482,59.164 v 2.4 c -0.166,0.523 -0.293,1.066 -0.375,1.631 v -2.4 c 0.082,-0.566 0.209,-1.109 0.375,-1.631" style="fill:#737678"/><path id="path3979" d="m 34.107,60.795 v 2.4 c -0.027,0.189 -0.047,0.383 -0.066,0.58 v -2.4 c 0.02,-0.195 0.039,-0.389 0.066,-0.58" style="fill:#737678"/></g></g><g id="g3981"><rect id="rect3983" width="1.297" height="2.398" x="58.193" y="68.541" style="fill:#737678"/></g><g id="g3985"><rect id="rect3987" width="1.309" height="2.398" x="40.736" y="68.541" style="fill:#737678"/></g><g id="g3989"><path id="path3991" d="m 55.051,56.83 c 5.438,0 9.229,3.418 9.229,8.293 v 10.586 h -4.79 v -7.168 h -1.297 v 7.168 H 42.045 v -7.168 h -1.309 v 7.168 H 35.724 V 65.123 c 0,-4.875 3.789,-8.293 9.227,-8.293 z" style="fill:#c5c6c7"/></g><g id="g3993"><rect id="rect3995" width="4.789" height="2.398" x="59.49" y="75.709" style="fill:#737678"/></g><g id="g3997"><rect id="rect3999" width="16.148" height="2.398" x="42.045" y="75.709" style="fill:#737678"/></g><g id="g4001"><rect id="rect4003" width="5.012" height="2.398" x="35.725" y="75.709" style="fill:#737678"/></g></g><g id="g4005"><g id="g4007"><path id="path4009" d="m 34.852,21.893 c 4.4,0 7.98,3.664 7.98,8.143 0,4.506 -3.58,8.156 -7.98,8.156 -4.391,0 -7.955,-3.65 -7.955,-8.156 -10e-4,-4.479 3.564,-8.143 7.955,-8.143 z" style="fill:#c5c6c7"/></g><g id="g4011"><defs id="defs4013"><path id="SVGID_43_" d="m 42.832,30.035 v 2.402 c 0,4.506 -3.58,8.156 -7.98,8.156 -4.391,0 -7.955,-3.65 -7.955,-8.156 v -2.402 c 0,4.506 3.564,8.156 7.955,8.156 4.4,0 7.98,-3.65 7.98,-8.156 z"/></defs><use id="use4016" width="744.094" height="1052.362" x="0" y="0" overflow="visible" xlink:href="#SVGID_43_" style="overflow:visible;fill:#737678"/><clipPath id="clipPath4156"><use id="use4158" width="744.094" height="1052.362" x="0" y="0" overflow="visible" xlink:href="#SVGID_43_" style="overflow:visible"/></clipPath><g id="g4021" clip-path="url(#SVGID_10_)"><path id="path4023" d="m 42.832,30.035 v 2.402 c 0,0.408 -0.031,0.809 -0.086,1.199 v -2.402 c 0.055,-0.39 0.086,-0.791 0.086,-1.199" style="fill:#737678"/><path id="path4025" d="m 42.746,31.234 v 2.402 c -0.066,0.461 -0.172,0.91 -0.312,1.342 v -2.4 c 0.14,-0.432 0.246,-0.883 0.312,-1.344" style="fill:#737678"/><path id="path4027" d="m 42.434,32.578 v 2.4 c -0.162,0.51 -0.373,0.998 -0.627,1.459 v -2.4 c 0.254,-0.461 0.464,-0.947 0.627,-1.459" style="fill:#737678"/><path id="path4029" d="m 41.807,34.037 v 2.4 c -1.371,2.48 -3.975,4.156 -6.955,4.156 -4.391,0 -7.955,-3.65 -7.955,-8.156 v -2.402 c 0,4.506 3.564,8.156 7.955,8.156 2.98,0 5.584,-1.673 6.955,-4.154" style="fill:#737678"/></g></g></g></g></g><path id="path4449-4-5-54-9" d="M 939.42903,-2.8034037 863.87314,-77.750087" style="fill:none;stroke:#646464;stroke-width:3;stroke-linecap:butt;stroke-linejoin:miter;stroke-miterlimit:4;stroke-dasharray:3,3;stroke-dashoffset:0;stroke-opacity:1;marker-end:url(#Arrow1Mend9-1)"/><path id="path4449-9-8" d="M 297.94962,-29.755522 421.79076,84.446097" style="fill:none;stroke:#646464;stroke-width:3;stroke-linecap:butt;stroke-linejoin:miter;stroke-miterlimit:4;stroke-dasharray:none;stroke-opacity:1;marker-end:url(#Arrow1MendE-4)"/><text id="text4370-3-8-3-4" x="475.425" y="27.588" xml:space="preserve" style="font-style:normal;font-weight:400;line-height:0%;font-family:sans-serif;text-align:center;letter-spacing:0;word-spacing:0;text-anchor:middle;fill:#000;fill-opacity:1;stroke:none"><tspan id="tspan5324" x="475.425" y="27.588" style="font-style:italic;font-size:16px;line-height:1.25;font-family:sans-serif;-inkscape-font-specification:'Sans Italic';text-align:center;text-anchor:middle">poll TPRs</tspan></text><text id="text4370-3-8-3-4-6" x="339.139" y="5.588" xml:space="preserve" style="font-style:normal;font-weight:400;line-height:0%;font-family:sans-serif;text-align:center;letter-spacing:0;word-spacing:0;text-anchor:middle;fill:#000;fill-opacity:1;stroke:none"><tspan id="tspan5328" x="344.232" y="5.588" style="font-style:italic;font-size:16px;line-height:1.25;font-family:sans-serif;-inkscape-font-specification:'Sans Italic';text-align:end;text-anchor:end">declare </tspan><tspan id="tspan16196" x="344.232" y="25.588" style="font-style:italic;font-size:16px;line-height:1.25;font-family:sans-serif;-inkscape-font-specification:'Sans Italic';text-align:end;text-anchor:end">tokens </tspan><tspan id="tspan16206" x="339.139" y="45.588" style="font-style:italic;font-size:16px;line-height:1.25;font-family:sans-serif;-inkscape-font-specification:'Sans Italic';text-align:end;text-anchor:end">via TPR</tspan></text><path id="path4449-4-5-54-9-9-2" d="M 564.66561,-35.991396 484.40279,85.874669" style="fill:none;stroke:#646464;stroke-width:3;stroke-linecap:butt;stroke-linejoin:miter;stroke-miterlimit:4;stroke-dasharray:none;stroke-opacity:1;marker-end:url(#Arrow1Mend9-1-3-6)"/><text id="text4370-3-8-3-4-0" x="547.425" y="335.159" xml:space="preserve" style="font-style:normal;font-weight:400;line-height:0%;font-family:sans-serif;text-align:center;letter-spacing:0;word-spacing:0;text-anchor:middle;fill:#000;fill-opacity:1;stroke:none"><tspan id="tspan4414-3-9" x="547.425" y="335.159" style="font-style:italic;font-size:16px;line-height:1.25;font-family:sans-serif;-inkscape-font-specification:'Sans Italic';text-align:center;text-anchor:middle">Node</tspan></text><rect id="rect3543-9-9-7-2" width="239.461" height="139.114" x="427.553" y="178.456" style="fill:url(#linearGradient3388-3);fill-opacity:1;stroke:#000;stroke-width:1;stroke-miterlimit:4;stroke-dasharray:none;stroke-dashoffset:0;stroke-opacity:1"/><rect id="rect3543-5-2-7" width="86.297" height="40.308" x="896.954" y="-24.509" style="fill:url(#linearGradient12959-3-9-2);fill-opacity:1;stroke:#000;stroke-width:1;stroke-miterlimit:4;stroke-dasharray:none;stroke-dashoffset:0;stroke-opacity:1"/><text id="text4370-3-8-2-3-37-3" x="939.636" y="-17.749" xml:space="preserve" style="font-style:normal;font-weight:400;line-height:0%;font-family:sans-serif;text-align:center;letter-spacing:0;word-spacing:0;text-anchor:middle;fill:#000;fill-opacity:1;stroke:none"><tspan id="tspan3908-2-1" x="939.636" y="-.562" style="font-weight:700;font-size:13.75px;line-height:1.25;font-family:sans-serif;-inkscape-font-specification:'Sans Bold';text-align:center;text-anchor:middle;fill:#fff;fill-opacity:1">Tokeninfo</tspan></text><path style="fill:none;stroke:#646464;stroke-width:3;stroke-linecap:butt;stroke-linejoin:miter;stroke-miterlimit:4;stroke-dasharray:3,3;stroke-dashoffset:0;stroke-opacity:1;marker-end:url(#Arrow1Mend9)" id="path9793" d="m 857.42013,83.892568 c 45.15142,-1.050154 85.34118,17.275192 81.72101,-62.420003"/><rect id="rect3543-5-5" width="110.583" height="70.308" x="765.151" y="47.395" style="fill:url(#linearGradient12959-3-3);fill-opacity:1;stroke:#000;stroke-width:1;stroke-miterlimit:4;stroke-dasharray:none;stroke-dashoffset:0;stroke-opacity:1"/><text id="text4370-3-8-2-3-3" x="820.248" y="78.87" xml:space="preserve" style="font-style:normal;font-weight:400;line-height:0%;font-family:sans-serif;text-align:center;letter-spacing:0;word-spacing:0;text-anchor:middle;fill:#000;fill-opacity:1;stroke:none"><tspan id="tspan3908-6" x="820.248" y="78.87" style="font-weight:700;font-size:13.75px;line-height:1.25;font-family:sans-serif;-inkscape-font-specification:'Sans Bold';text-align:center;text-anchor:middle;fill:#fff;fill-opacity:1">Resource</tspan><tspan id="tspan6444" x="820.248" y="96.057" style="font-weight:700;font-size:13.75px;line-height:1.25;font-family:sans-serif;-inkscape-font-specification:'Sans Bold';text-align:center;text-anchor:middle;fill:#fff;fill-opacity:1">Server</tspan></text><path id="path4449-4-5-54" d="m 594.88521,288.7949 c 95.15143,3.23557 -14.5898,-181.80517 163.41294,-204.283169" style="fill:none;stroke:#646464;stroke-width:3;stroke-linecap:butt;stroke-linejoin:miter;stroke-miterlimit:4;stroke-dasharray:3,3;stroke-dashoffset:0;stroke-opacity:1;marker-end:url(#Arrow1Mend9)"/><path id="path4449-4-5-54-9-9-2-3-6-5-6-8-7" d="M 571.94504,291.84694 503.29307,258.41115" style="fill:none;stroke:#646464;stroke-width:2;stroke-linecap:butt;stroke-linejoin:miter;stroke-miterlimit:4;stroke-dasharray:none;stroke-opacity:1;marker-end:url(#Arrow1Mend9-1-3-6-0-2-1-4-50-7)"/><g id="g5576" transform="translate(-13.714285,-29.999996)"><rect style="fill:url(#linearGradient12959-3-9-2-2-2-0);fill-opacity:1;stroke:#000;stroke-width:1;stroke-miterlimit:4;stroke-dasharray:none;stroke-dashoffset:0;stroke-opacity:1" id="rect3543-5-2-7-1-7-6" width="52.726" height="33.165" x="563.008" y="303.52"/><text style="font-style:normal;font-weight:400;line-height:0%;font-family:sans-serif;text-align:center;letter-spacing:0;word-spacing:0;text-anchor:middle;fill:#000;fill-opacity:1;stroke:none" id="text4370-3-8-2-3-37-3-9-4-8" x="589.337" y="308.595" xml:space="preserve"><tspan style="font-weight:700;font-size:13.74666691px;line-height:1.25;font-family:sans-serif;-inkscape-font-specification:'Sans Bold';text-align:center;text-anchor:middle;fill:#fff;fill-opacity:1" id="tspan3908-2-1-7-3-4" x="589.337" y="325.78">Pod</tspan></text></g><path style="fill:none;stroke:#646464;stroke-width:2;stroke-linecap:butt;stroke-linejoin:miter;stroke-miterlimit:4;stroke-dasharray:none;stroke-opacity:1;marker-end:url(#Arrow1Mend9-1-3-6-0-2-1-4-50-7)" id="path15186" d="m 557.8388,210.8473 -47.76002,25.77813"/><path id="path15164" d="M 554.46943,199.86466 496.40281,149.44609" style="fill:none;stroke:#646464;stroke-width:3;stroke-linecap:butt;stroke-linejoin:miter;stroke-miterlimit:4;stroke-dasharray:none;stroke-opacity:1;marker-end:url(#Arrow1Mend9-1-3-6)"/><g id="g6786" transform="translate(-47,-80)"><rect style="fill:url(#linearGradient12959-3-9-2-2-2);fill-opacity:1;stroke:#000;stroke-width:1;stroke-miterlimit:4;stroke-dasharray:none;stroke-dashoffset:0;stroke-opacity:1" id="rect3543-5-2-7-1-7" width="74.512" height="23.88" x="560.437" y="271.148"/><text style="font-style:normal;font-weight:400;font-size:13.74666691px;line-height:0%;font-family:sans-serif;text-align:center;letter-spacing:0;word-spacing:0;text-anchor:middle;fill:#000;fill-opacity:1;stroke:none" id="text4370-3-8-2-3-37-3-9-4" x="595.966" y="270.509" xml:space="preserve"><tspan style="font-weight:700;font-size:13.74666691px;line-height:1.25;font-family:sans-serif;-inkscape-font-specification:'Sans Bold';text-align:center;text-anchor:middle;fill:#fff;fill-opacity:1" id="tspan3908-2-1-7-3" x="595.966" y="287.693">kubelet</tspan></text></g><text style="font-style:normal;font-weight:400;line-height:0%;font-family:sans-serif;text-align:center;letter-spacing:0;word-spacing:0;text-anchor:middle;fill:#000;fill-opacity:1;stroke:none" id="text9795" x="925.826" y="107.016" xml:space="preserve"><tspan style="font-style:italic;font-size:16px;line-height:1.25;font-family:sans-serif;-inkscape-font-specification:'Sans Italic';text-align:center;text-anchor:middle" id="tspan9799" x="925.826" y="107.016">validate</tspan><tspan id="tspan16264" x="925.826" y="127.016" style="font-style:italic;font-size:16px;line-height:1.25;font-family:sans-serif;-inkscape-font-specification:'Sans Italic';text-align:center;text-anchor:middle">token</tspan></text><path style="fill:none;stroke:#646464;stroke-width:3;stroke-linecap:butt;stroke-linejoin:miter;stroke-miterlimit:4;stroke-dasharray:none;stroke-opacity:1;marker-end:url(#Arrow1Mend9-1-3-6)" id="path15154" d="M 569.46872,-32.838386 515.11708,84.446098"/><path style="fill:none;stroke:#646464;stroke-width:3;stroke-linecap:butt;stroke-linejoin:miter;stroke-miterlimit:4;stroke-dasharray:none;stroke-opacity:1;marker-end:url(#Arrow1Mend9-1-3-6)" id="path15015" d="M 576.26326,-40.523463 725.40279,-89.982474"/><rect style="fill:url(#linearGradient13048);fill-opacity:1;stroke:#000;stroke-width:1;stroke-miterlimit:4;stroke-dasharray:none;stroke-dashoffset:0;stroke-opacity:1" id="rect13040" width="124.041" height="52.134" x="503.195" y="-64.747"/><text style="font-style:normal;font-weight:400;line-height:0%;font-family:sans-serif;text-align:center;letter-spacing:0;word-spacing:0;text-anchor:middle;fill:#000;fill-opacity:1;stroke:none" id="text13046" x="564.913" y="-42.05" xml:space="preserve"><tspan style="font-weight:700;font-size:13.75px;line-height:1.25;font-family:sans-serif;-inkscape-font-specification:'Sans Bold';text-align:center;text-anchor:middle;fill:#fff;fill-opacity:1" id="tspan13044" x="564.913" y="-42.05">Credential</tspan><tspan id="tspan13052" x="564.913" y="-24.863" style="font-weight:700;font-size:13.75px;line-height:1.25;font-family:sans-serif;-inkscape-font-specification:'Sans Bold';text-align:center;text-anchor:middle;fill:#fff;fill-opacity:1">Provider</tspan></text><rect id="rect15001" width="124.041" height="52.134" x="733.909" y="-126.89" style="fill:url(#linearGradient15009);fill-opacity:1;stroke:#000;stroke-width:1;stroke-miterlimit:4;stroke-dasharray:none;stroke-dashoffset:0;stroke-opacity:1"/><text id="text15007" x="795.627" y="-104.193" xml:space="preserve" style="font-style:normal;font-weight:400;line-height:0%;font-family:sans-serif;text-align:center;letter-spacing:0;word-spacing:0;text-anchor:middle;fill:#000;fill-opacity:1;stroke:none"><tspan id="tspan15003" x="795.627" y="-104.193" style="font-weight:700;font-size:13.75px;line-height:1.25;font-family:sans-serif;-inkscape-font-specification:'Sans Bold';text-align:center;text-anchor:middle;fill:#fff;fill-opacity:1">OAuth</tspan><tspan style="font-weight:700;font-size:13.75px;line-height:1.25;font-family:sans-serif;-inkscape-font-specification:'Sans Bold';text-align:center;text-anchor:middle;fill:#fff;fill-opacity:1" id="tspan15005" x="795.627" y="-87.005">Provider</tspan></text><text id="text15180" x="501.754" y="250.945" xml:space="preserve" style="font-style:normal;font-weight:400;line-height:0%;font-family:sans-serif;text-align:center;letter-spacing:0;word-spacing:0;text-anchor:middle;fill:#fff;fill-opacity:1;stroke:none"><tspan id="tspan15178" x="501.754" y="250.945" style="font-style:normal;font-variant:normal;font-weight:400;font-stretch:normal;font-size:10.66666698px;line-height:1.25;font-family:Sans;-inkscape-font-specification:Sans;text-align:center;text-anchor:middle;fill:#fff">/../mytok-token-secret</tspan></text><text style="font-style:normal;font-weight:400;line-height:0%;font-family:sans-serif;text-align:center;letter-spacing:0;word-spacing:0;text-anchor:middle;fill:#000;fill-opacity:1;stroke:none" id="text16202" x="553.749" y="32.016" xml:space="preserve"><tspan style="font-style:italic;font-size:16px;line-height:1.25;font-family:sans-serif;-inkscape-font-specification:'Sans Italic';text-align:start;text-anchor:start" id="tspan16200" x="553.749" y="32.016">update</tspan><tspan id="tspan16204" x="553.749" y="52.016" style="font-style:italic;font-size:16px;line-height:1.25;font-family:sans-serif;-inkscape-font-specification:'Sans Italic';text-align:start;text-anchor:start">secret</tspan></text><rect id="rect7681" width="389.286" height="278.571" x="329.014" y="76.174" style="fill:none;fill-opacity:.53333285;stroke:#646464;stroke-width:4;stroke-miterlimit:4;stroke-dasharray:4,8;stroke-dashoffset:0;stroke-opacity:1"/></g></svg>